<?xml version="1.0" encoding="utf-8"?>
<svg version="1.1" xmlns="http://www.w3.org/2000/svg" xmlns:xlink="http://www.w3.org/1999/xlink" x="0px" y="0px" viewBox="11 25 120 92" enable-background="new 0 0 141.732 141.732" xml:space="preserve">
<polygon fill-rule="evenodd" clip-rule="evenodd" points="104.874,60.943 104.874,70.018 111.474,70.018 111.474,80.741
124.671,80.741 124.671,70.018 130.446,70.018 130.446,60.943 "/>
<path fill-rule="evenodd" clip-rule="evenodd" d="M118.421,54V36.482C73.921,11.458,11.286,28.808,11.286,70.35
c0,46.323,62.633,57.89,107.135,35.366v-18.35c-16.482,5.838-44.502,4.17-44.502-16.684S98.376,46.914,118.421,54z M46.603,77.34
c-1.65,0-2.475,0-4.125-0.825v-9.568c0.376,0.2,0.825,0.494,4.125,0.494c3.299,0,7.424-2.474,7.424-7.424
c0-4.95-3.981-7.424-7.424-7.424c-3.394,0-7.425,3.299-7.425,7.424l-0.183,37.969c-4.308-0.166-8.787-2.723-9.599-7.377
l-0.013-31.843c0.055-8.409,7.63-16.071,16.853-16.071c9.289,0,17.688,7.424,17.688,17.499
C63.925,70.268,54.852,77.34,46.603,77.34z"/>
</svg>
