<?xml version="1.0" encoding="UTF-8"?><!DOCTYPE svg PUBLIC "-//W3C//DTD SVG 1.1//EN" "http://www.w3.org/Graphics/SVG/1.1/DTD/svg11.dtd"><svg xmlns="http://www.w3.org/2000/svg"><defs>
        <style>
            .cls-1{fill-rule:evenodd}
        </style>
    
        <style>
            .cls-1{fill-rule:evenodd}
        </style>
    </defs><symbol id="icon-arrow-right" viewBox="0 0 54 45.95">
    <path d="M31.02 45.95L54 22.98l-4.18-4.18L31.02 0l-4.18 4.18 15.85 15.84H0v5.91h42.69L26.85 41.77l4.17 4.18z"/>
</symbol><symbol id="icon-arrow" viewBox="0 0 45.95 54">
    <path d="M0 31.02L22.98 54l4.17-4.18 18.8-18.8-4.18-4.18-15.84 15.85V0h-5.91v42.69L4.18 26.85 0 31.02z"/>
</symbol><symbol id="icon-arrowLong" viewBox="0 0 54 15.85">
    <path d="M7.92 0L0 7.92l1.44 1.44 6.48 6.49 1.45-1.44L3.9 8.94H54V6.91H3.9l5.46-5.47L7.92 0z"/>
</symbol><symbol id="icon-clip" viewBox="0 0 20 22">
    <path d="M12.48 20.693L1.623 9.653c-2.164-2.2-2.164-5.802 0-8.002 2.596-2.64 6.137-1.715 7.822 0l9.568 9.73-.645.655-9.523-9.73c-1.316-1.41-4.347-2.222-6.626 0-1.796 1.824-1.796 4.868 0 6.69l10.856 11.041c1.383 1.406 3.591 1.406 4.924 0 1.383-1.405 1.383-3.65 0-5.006L8.756 5.58a2.28 2.28 0 0 0-3.222 0c-.876.889-.876 2.384 0 3.273l8.053 8.19-.645.655L4.89 9.513a3.281 3.281 0 0 1 0-4.584 3.16 3.16 0 0 1 4.51 0l9.293 9.447c2.302 2.339 1.08 5.275 0 6.362-1.453 1.544-4.444 1.832-6.213-.045z"/>
</symbol><symbol id="icon-close" viewBox="0 0 54 54">
    <path d="M54 3.61L50.39 0 27 23.39 3.61 0 0 3.61 23.39 27 0 50.39 3.61 54 27 30.61 50.39 54 54 50.39 30.61 27 54 3.61z"/>
</symbol><symbol id="icon-facebook" viewBox="0 0 10 19">
    <path d="M9.766.157v2.946H8.014c-.64 0-1.071.134-1.295.402-.223.268-.335.67-.335 1.205v2.11h3.27l-.435 3.303H6.384v8.471H2.97v-8.47H.123V6.82H2.97V4.387c0-1.384.387-2.457 1.161-3.22C4.904.404 5.934.023 7.222.023c1.093 0 1.941.045 2.544.134z" fill-rule="evenodd"/>
</symbol><symbol id="icon-fb" viewBox="0 0 30 54">
    <g data-name="&#x421;&#x43B;&#x43E;&#x439; 2">
        <path d="M30 9.39h-8.57c-1 0-2.14 1.33-2.14 3.11v6.19H30v8.82H19.29V54H9.17V27.51H0v-8.82h9.17V13.5C9.17 6.06 14.34 0 21.43 0H30z" data-name="&#x421;&#x43B;&#x43E;&#x439; 30"/>
    </g>
</symbol><symbol id="icon-follow" viewBox="0 0 54 48">
    <g data-name="&#x421;&#x43B;&#x43E;&#x439; 2">
        <path d="M53.43 15.93L38 .57a1.9 1.9 0 0 0-2.71 0 1.86 1.86 0 0 0-.58 1.35V9.6H28Q6.48 9.6 1.6 21.69a27.09 27.09 0 0 0-1.6 10q0 5 3.83 13.53l.31.72c.15.34.29.64.41.9a3.38 3.38 0 0 0 .39.66 1 1 0 0 0 .85.51.87.87 0 0 0 .7-.3 1.12 1.12 0 0 0 .26-.71 6.28 6.28 0 0 0-.08-.79 5.87 5.87 0 0 1-.07-.71q-.15-2-.15-3.69A24.87 24.87 0 0 1 7 36.33a15.89 15.89 0 0 1 1.46-4.15 10.31 10.31 0 0 1 2.41-3A14 14 0 0 1 14 27.06a17.26 17.26 0 0 1 4-1.27 38.52 38.52 0 0 1 4.65-.65C24.23 25 26 25 28 25h6.75v7.68A1.92 1.92 0 0 0 38 34l15.43-15.37a1.88 1.88 0 0 0 0-2.7z" data-name="&#x421;&#x43B;&#x43E;&#x439; 32"/>
    </g>
</symbol><symbol id="icon-gost" viewBox="11 25 120 92">
    <path fill-rule="evenodd" clip-rule="evenodd" d="M104.874 60.943v9.075h6.6v10.723h13.197V70.018h5.775v-9.075z"/>
    <path fill-rule="evenodd" clip-rule="evenodd" d="M118.421 54V36.482C73.921 11.458 11.286 28.808 11.286 70.35c0 46.323 62.633 57.89 107.135 35.366v-18.35c-16.482 5.838-44.502 4.17-44.502-16.684S98.376 46.914 118.421 54zM46.603 77.34c-1.65 0-2.475 0-4.125-.825v-9.568c.376.2.825.494 4.125.494 3.299 0 7.424-2.474 7.424-7.424s-3.981-7.424-7.424-7.424c-3.394 0-7.425 3.299-7.425 7.424l-.183 37.969c-4.308-.166-8.787-2.723-9.599-7.377l-.013-31.843c.055-8.409 7.63-16.071 16.853-16.071 9.289 0 17.688 7.424 17.688 17.499.001 10.074-9.072 17.146-17.321 17.146z"/>
</symbol><symbol id="icon-hamburger" viewBox="0 0 54 40.5">
    <g data-name="&#x421;&#x43B;&#x43E;&#x439; 2">
        <g data-name="&#x421;&#x43B;&#x43E;&#x439; 11">
            <path d="M0 0h54v4.5H0z"/>
            <path d="M0 18h54v4.5H0z"/>
            <path d="M0 36h54v4.5H0z"/>
        </g>
    </g>
</symbol><symbol id="icon-inst" viewBox="0 0 54 54">
    
    <g id="&#x421;&#x43B;&#x43E;&#x439;_2" data-name="&#x421;&#x43B;&#x43E;&#x439; 2">
        <g id="&#x421;&#x43B;&#x43E;&#x439;_31" data-name="&#x421;&#x43B;&#x43E;&#x439; 31">
            <path class="cls-1" d="M27 13a14 14 0 1 0 14 14 14 14 0 0 0-14-14zm0 23a9 9 0 1 1 9-9 9 9 0 0 1-9 9z"/>
            <path class="cls-1" d="M41.46 9.26a3.28 3.28 0 1 0 3.28 3.28 3.28 3.28 0 0 0-3.28-3.28z"/>
            <path class="cls-1" d="M38.77 0H15.23A15.23 15.23 0 0 0 0 15.23v23.55A15.22 15.22 0 0 0 15.23 54h23.54A15.22 15.22 0 0 0 54 38.78V15.23A15.23 15.23 0 0 0 38.77 0zm9.86 39.5a9.14 9.14 0 0 1-9.14 9.13h-25a9.14 9.14 0 0 1-9.12-9.13v-25a9.14 9.14 0 0 1 9.14-9.14h25a9.14 9.14 0 0 1 9.14 9.14z"/>
        </g>
    </g>
</symbol><symbol id="icon-location-pin" viewBox="0 0 18 24">
    <g fill-rule="evenodd">
        <path d="M9 0C4.037 0 0 4.016 0 8.953c0 7.356 8.104 14.538 8.45 14.84a.834.834 0 0 0 1.1 0C9.897 23.491 18 16.31 18 8.953 18 4.016 13.963 0 9 0zm0 22c-1.736-1.695-7.105-7.378-7.105-12.84C1.895 5.213 5.082 2 9 2c3.918 0 7.105 3.212 7.105 7.16 0 5.462-5.369 11.145-7.105 12.84z" fill-rule="nonzero"/>
        <ellipse cx="9" cy="9.5" rx="1.421" ry="1.5"/>
    </g>
</symbol><symbol id="icon-logo" viewBox="0 0 38.88 54">
    
    <g id="&#x421;&#x43B;&#x43E;&#x439;_2" data-name="&#x421;&#x43B;&#x43E;&#x439; 2">
        <g id="&#x421;&#x43B;&#x43E;&#x439;_4" data-name="&#x421;&#x43B;&#x43E;&#x439; 4">
            <path class="cls-1" d="M31.1 46h-7.77v-8h3.89v-8H11.66v8h3.89v8H7.78V23.76H0V54h38.88V23.76H31.1V46z"/>
            <path class="cls-1" d="M19.44 0L0 14v9.76l19.44-14 19.44 14V14L19.44 0z"/>
        </g>
    </g>
</symbol><symbol id="icon-mark" viewBox="0 0 45.99 54">
    <path d="M46 23a23 23 0 1 0-27.62 22.53L23 54l4.62-8.47A23 23 0 0 0 46 23z"/>
</symbol><symbol id="icon-openGallery" viewBox="0 0 20 20">
    <g fill-rule="nonzero">
        <g transform="rotate(-45 25.607 .707)">
            <rect transform="rotate(-45 4.596 4.68)" x="3.596" y="-.819" width="2" height="11" rx="1"/>
            <rect transform="rotate(45 10.957 4.683)" x="9.957" y="-.817" width="2" height="11" rx="1"/>
        </g>
        <g transform="rotate(135 5.97 3.1)">
            <rect transform="rotate(-45 4.596 4.68)" x="3.596" y="-.819" width="2" height="11" rx="1"/>
            <rect transform="rotate(45 10.957 4.683)" x="9.957" y="-.817" width="2" height="11" rx="1"/>
        </g>
    </g>
</symbol><symbol id="icon-phone" viewBox="0 0 22 22">
    <title>
        49757E96-0487-4A9C-A334-3EB2B3E4981C
    </title>
    <path d="M16.467 20c-.749 0-1.653-.188-2.648-.563-2.181-.822-4.554-2.447-6.681-4.575-2.128-2.128-3.753-4.501-4.576-6.682-.748-1.983-.75-3.61-.004-4.355.107-.107.216-.222.329-.34.68-.716 1.448-1.52 2.466-1.484.702.03 1.382.465 2.078 1.332 2.057 2.558 1.13 3.47.056 4.527l-.19.188c-.175.175-.507.988 2.58 4.075 1.007 1.007 1.866 1.745 2.553 2.19.432.282 1.205.707 1.523.39l.19-.193c1.056-1.071 1.968-1.996 4.525.06.866.696 1.301 1.375 1.33 2.078.042 1.018-.768 1.788-1.484 2.467-.118.113-.233.222-.34.329-.37.37-.962.556-1.707.556z" fill-rule="nonzero" stroke-width="2"/>
</symbol><symbol id="icon-search" viewBox="0 0 22 23">
    <g stroke-width="2">
        <circle cx="11" cy="11" r="9"/>
        <path d="M17 18l4.132 4.504"/>
    </g>
</symbol><symbol id="icon-sl-arrow" viewBox="0 0 54 15.85">
    <path d="M7.92 0L0 7.92l1.44 1.44 6.48 6.49 1.45-1.44L3.9 8.94H54V6.91H3.9l5.46-5.47L7.92 0z"/>
</symbol><symbol id="icon-three-dots" viewBox="0 0 15 3">
    <g>
        <circle cx="1.5" cy="1.5" r="1.5"/>
        <circle cx="7.5" cy="1.5" r="1.5"/>
        <circle cx="13.5" cy="1.5" r="1.5"/>
    </g>
</symbol><symbol id="icon-vk" viewBox="0 0 54 31.62">
    <g data-name="&#x421;&#x43B;&#x43E;&#x439; 2">
        <path d="M44.86 15.5S52 5.47 52.68 2.17C52.92 1 52.4.33 51.17.33H45a2.26 2.26 0 0 0-2.36 1.51S39.31 9 35.25 13.43c-1.31 1.45-2 1.88-2.69 1.88s-.85-.48-.85-1.79V2.07C31.71.47 31.52 0 30.2 0h-9.89a1.08 1.08 0 0 0-1.23 1c0 1.51 2.31 1.85 2.31 5.93v8.44c0 1.69-.09 2.35-.89 2.35-2.12 0-7.16-7.3-10-15.59C9.94.47 9.33 0 7.73 0H1.56A1.47 1.47 0 0 0 0 1.51C0 3.16 1.93 10.79 9.52 21c5.09 6.88 11.78 10.6 17.81 10.6 3.68 0 4.57-.61 4.57-2.17v-5.26c0-1.32.52-1.88 1.27-1.88s2.35.27 5.83 3.71c4.14 4 4.43 5.61 6.69 5.61h6.92c.71 0 1.37-.33 1.37-1.51 0-1.56-2-4.34-5.14-7.63-1.27-1.7-3.34-3.54-4-4.39-.92-.98-.64-1.54.02-2.58z" data-name="&#x421;&#x43B;&#x43E;&#x439; 27"/>
    </g>
</symbol><symbol id="icon-yarovoy" viewBox="0 0 48 61">
    <g>
        <path d="M20.744 39.932C-1.526 41.09 7.135 17.447 22.045 8.84c8.777-5.07 16.74-5.37 18.855-2.713 2.76 3.468-.048 12.402-3.568 19.544-.457.923-3.343 6.352-7.558 12.489-3.081.96-6.21 1.627-9.03 1.772m19.617-2.364s-2.294 3.367-3.705 6.707c-2.144 5.083 1.127 6.985 5.025 5.763.409-.122.7-.247.913-.374.499-.272.837-.766.837-1.338 0-.862-.763-1.561-1.703-1.561-.16 0-.312.027-.46.065.421-1.682 2.56-5.588 4.474-9.106 1.501-2.761-1.83-6.24-3.952-4.916a42.757 42.757 0 0 1-3.43 1.888 131.106 131.106 0 0 0 4.218-7.372c6.446-12.205 5.613-21.644-.992-25.443C37.014-.748 29.61-1.09 20.226 3.92 2.81 13.214-10.601 38.814 12.173 42.728c4.935.846 9.982.38 14.852-.736-8.31 11.15-19.142 22.084-21.533 11.461-.826-3.67-5.87-2.258-5.47.622 1.06 7.615 10.66 9.27 19.68 3.362 4.205-2.755 10.139-9.832 15.549-17.9 1.76-.63 3.468-1.299 5.11-1.969"/>
        <path d="M47.525 52.004c-1.952-.108-16.474 2.22-19.43 3.661-1.285.627-1.482 4.598-.362 4.321 5.577-1.376 12.216-2.708 18.638-2.913 1.926-.061 1.909-5.028 1.154-5.07"/>
    </g>
</symbol></svg>