<?xml version="1.0" encoding="UTF-8"?>
<svg viewBox="0 0 20 22" version="1.1" xmlns="http://www.w3.org/2000/svg">
<path stroke-width="1" fill="#2443A1" d="M12.4799789,20.6929517 L1.62318608,9.65225278 C-0.541062025,7.45219484 -0.541062025,3.85128369 1.62318608,1.65122576 C4.21850618,-0.988843759 7.76040707,-0.0639214443 9.44469872,1.65122576 L19.0127196,11.3808697 L18.3683336,12.0363972 L8.84475314,2.30675323 C7.52931693,0.896920184 4.49848078,0.0842457226 2.21868761,2.30675323 C0.423294931,4.12965837 0.423294931,7.17382016 2.21868761,8.99672531 L13.0754804,20.0374242 C14.4575773,21.4427673 16.6662658,21.4427673 17.9994782,20.0374242 C19.381575,18.6320811 19.381575,16.387124 17.9994782,15.0311699 L8.75587232,5.57990064 C7.88039619,4.69089764 6.40941853,4.69089764 5.5339424,5.57990064 C4.65846626,6.46890364 4.65846626,7.96404505 5.5339424,8.85304806 L13.5865452,17.0426515 L12.9421592,17.6981789 L4.88955641,9.51306544 C3.64522485,8.25139956 3.64522485,6.19052897 4.88955641,4.92886309 C6.13388797,3.66719721 8.15592675,3.66719721 9.4002583,4.92886309 L18.6927486,14.3756425 C20.994762,16.7148877 19.7726506,19.6512916 18.6927486,20.7378508 C17.2395471,22.2823813 14.2487073,22.5697358 12.4799789,20.6929517 Z"></path>
</svg>
