<svg xmlns="http://www.w3.org/2000/svg" viewBox="0 0 54 48"><g id="Слой_2" data-name="Слой 2"><g id="Слой_32" data-name="Слой 32"><path d="M53.43,15.93,38,.57a1.9,1.9,0,0,0-2.71,0,1.86,1.86,0,0,0-.58,1.35V9.6H28Q6.48,9.6,1.6,21.69a27.09,27.09,0,0,0-1.6,10q0,5,3.83,13.53l.31.72c.15.34.29.64.41.9a3.38,3.38,0,0,0,.39.66,1,1,0,0,0,.85.51.87.87,0,0,0,.7-.3A1.12,1.12,0,0,0,6.75,47a6.28,6.28,0,0,0-.08-.79,5.87,5.87,0,0,1-.07-.71q-.15-2-.15-3.69A24.87,24.87,0,0,1,7,36.33a15.89,15.89,0,0,1,1.46-4.15,10.31,10.31,0,0,1,2.41-3A14,14,0,0,1,14,27.06a17.26,17.26,0,0,1,4-1.27,38.52,38.52,0,0,1,4.65-.65C24.23,25,26,25,28,25h6.75v7.68A1.92,1.92,0,0,0,38,34L53.43,18.63a1.88,1.88,0,0,0,0-2.7Z"/></g></g></svg>
