<svg xmlns="http://www.w3.org/2000/svg" viewBox="0 0 54 54"><defs><style>.cls-1{fill-rule:evenodd;}</style></defs><g id="Слой_2" data-name="Слой 2"><g id="Слой_31" data-name="Слой 31"><path class="cls-1" d="M27,13A14,14,0,1,0,41,27,14,14,0,0,0,27,13Zm0,23a9,9,0,1,1,9-9A9,9,0,0,1,27,36Z"/><path class="cls-1" d="M41.46,9.26a3.28,3.28,0,1,0,3.28,3.28A3.28,3.28,0,0,0,41.46,9.26Z"/><path class="cls-1" d="M38.77,0H15.23A15.23,15.23,0,0,0,0,15.23V38.78A15.22,15.22,0,0,0,15.23,54H38.77A15.22,15.22,0,0,0,54,38.78V15.23A15.23,15.23,0,0,0,38.77,0Zm9.86,39.5a9.14,9.14,0,0,1-9.14,9.13h-25A9.14,9.14,0,0,1,5.37,39.5v-25a9.14,9.14,0,0,1,9.14-9.14h25a9.14,9.14,0,0,1,9.14,9.14Z"/></g></g></svg>
