<svg viewBox="0 0 18 24" version="1.1" xmlns="http://www.w3.org/2000/svg">
<g fill="#ffffff" fill-rule="evenodd">
<path d="M9,0 C4.03733533,0 0,4.01639052 0,8.95326278 C0,16.3088744 8.10416874,23.4909916 8.44928806,23.7932128 C8.60661111,23.9309901 8.80326492,24 9,24 C9.19673508,24 9.39338889,23.9310709 9.55079321,23.7932128 C9.89575,23.4910724 18,16.3089552 18,8.95326278 C18,4.01639052 13.9626647,0 9,0 Z M9,22 C7.26397674,20.3054894 1.89473684,14.6219868 1.89473684,9.16054866 C1.89473684,5.2122421 5.08215712,2 9,2 C12.9178429,2 16.1052632,5.2122421 16.1052632,9.16054866 C16.1052632,14.6219075 10.7360233,20.30541 9,22 Z"
fill-rule="nonzero"></path>
<ellipse cx="9" cy="9.5" rx="1.42105263" ry="1.5"></ellipse>
</g>
</svg>
