<svg xmlns="http://www.w3.org/2000/svg" viewBox="0 0 38.88 54"><defs><style>.cls-1{fill-rule:evenodd;}</style></defs><g id="Слой_2" data-name="Слой 2"><g id="Слой_4" data-name="Слой 4"><polygon class="cls-1" points="31.1 46 23.33 46 23.33 38 27.22 38 27.22 30 19.44 30 11.66 30 11.66 38 15.55 38 15.55 46 7.78 46 7.78 23.76 0 23.76 0 54 7.78 54 7.78 54 15.55 54 15.55 54 19.44 54 23.33 54 23.33 54 31.1 54 31.1 54 38.88 54 38.88 23.76 31.1 23.76 31.1 46"/><polygon class="cls-1" points="19.44 0 0 14 0 23.76 19.44 9.76 38.88 23.76 38.88 14 19.44 0"/></g></g></svg>
