<?xml version="1.0" encoding="UTF-8"?>
<svg width="22px" height="22px" viewBox="0 0 22 22" version="1.1" xmlns="http://www.w3.org/2000/svg" xmlns:xlink="http://www.w3.org/1999/xlink">
    <!-- Generator: sketchtool 49.3 (51167) - http://www.bohemiancoding.com/sketch -->
    <title>49757E96-0487-4A9C-A334-3EB2B3E4981C</title>
    <desc>Created with sketchtool.</desc>
    <defs></defs>
    <g id="Symbols" stroke="none" stroke-width="1" fill="none" fill-rule="evenodd">
        <g id="HEADER-Nav-new-white-320" transform="translate(-179.000000, -15.000000)" fill-rule="nonzero" stroke="#FFFFFF" stroke-width="2">
            <g id="phone-call" transform="translate(179.000000, 15.000000)">
                <g id="Shape_export">
                    <g id="Shape">
                        <g>
                            <path d="M16.4669506,20 C15.7180343,20 14.8135226,19.8123169 13.818802,19.4369506 C11.6380449,18.6147773 9.26536669,16.9898045 7.13788743,14.8623253 C5.00980274,12.7342406 3.38482996,10.3609569 2.56205127,8.18019988 C1.81434584,6.19741827 1.81252955,4.57002377 2.55781326,3.82534549 C2.66497428,3.71818447 2.77395159,3.60315286 2.88656148,3.48448868 C3.56645881,2.76947644 4.33474884,1.96486064 5.35308126,2.00118641 C6.05477405,2.03024702 6.73467138,2.46615626 7.4309153,3.33252588 C9.48816474,5.89107094 8.56064675,6.80284777 7.48722025,7.85992768 L7.29772081,8.04761082 C7.12214626,8.22318538 6.79037089,9.03627719 9.87685048,12.1227568 C10.8842852,13.1301915 11.7433896,13.8676046 12.4299467,14.3138061 C12.8622233,14.5947254 13.6353568,15.0197369 13.9526019,14.7024919 L14.1433122,14.5099653 C15.1991812,13.4389605 16.110958,12.5144697 18.6676868,14.5699028 C19.5340564,15.2661467 19.9693602,15.9454386 19.9984209,16.6483423 C20.0401955,17.6660693 19.2295254,18.4361756 18.5139077,19.1154675 C18.395849,19.2280774 18.2808174,19.3370547 18.1736563,19.4436103 C17.8037389,19.8141331 17.2122343,20 16.4669506,20 Z"></path>
                        </g>
                    </g>
                </g>
            </g>
        </g>
    </g>
</svg>