<svg xmlns="http://www.w3.org/2000/svg" viewBox="0 0 54 31.62"><g id="Слой_2" data-name="Слой 2"><g id="Слой_27" data-name="Слой 27"><path d="M44.86,15.5S52,5.47,52.68,2.17C52.92,1,52.4.33,51.17.33H45a2.26,2.26,0,0,0-2.36,1.51S39.31,9,35.25,13.43c-1.31,1.45-2,1.88-2.69,1.88s-.85-.48-.85-1.79V2.07C31.71.47,31.52,0,30.2,0H20.31a1.08,1.08,0,0,0-1.23,1c0,1.51,2.31,1.85,2.31,5.93v8.44c0,1.69-.09,2.35-.89,2.35-2.12,0-7.16-7.3-10-15.59C9.94.47,9.33,0,7.73,0H1.56A1.47,1.47,0,0,0,0,1.51C0,3.16,1.93,10.79,9.52,21c5.09,6.88,11.78,10.6,17.81,10.6,3.68,0,4.57-.61,4.57-2.17V24.17c0-1.32.52-1.88,1.27-1.88S35.52,22.56,39,26c4.14,4,4.43,5.61,6.69,5.61h6.92c.71,0,1.37-.33,1.37-1.51,0-1.56-2-4.34-5.14-7.63-1.27-1.7-3.34-3.54-4-4.39C43.92,17.1,44.2,16.54,44.86,15.5Z"/></g></g></svg>
