<svg viewBox="0 0 48 61" version="1.1" xmlns="http://www.w3.org/2000/svg">
<g fill="#FFFFFF" transform="translate(-9.000000, -9.000000)">
<path d="M29.7442584,48.932477 C7.47347456,50.0895118 16.1349663,26.4465179 31.0450061,17.8397693 C39.8222117,12.7708773 47.7852877,12.4702566 49.8996484,15.1270813 C52.6592171,18.5953453 49.852123,27.529226 46.3316324,34.6707443 C45.8749759,35.5943838 42.9888452,41.0226005 38.7740715,47.1595246 C35.6926736,48.1205642 32.5642669,48.7866641 29.7442584,48.932477 M49.3608557,46.5682249 C49.3608557,46.5682249 47.0672419,49.9351774 45.6564627,53.275145 C43.5121404,58.3582396 46.7831231,60.2604351 50.6807169,59.0380685 C51.089848,58.9164 51.3806823,58.7909441 51.5935132,58.6640679 C52.0930457,58.3918523 52.4314054,57.8976033 52.4314054,57.3261872 C52.4314054,56.4640921 51.6684172,55.7648529 50.7277256,55.7648529 C50.5675859,55.7648529 50.4157115,55.7918378 50.2684863,55.8297113 C50.6889821,54.1476553 52.8286552,50.2419526 54.7415498,46.724453 C56.243247,43.9625294 52.911308,40.484797 50.7897152,41.8075284 C49.7648211,42.4452231 48.6025167,43.0748697 47.3601426,43.6959948 C48.8706216,41.2398996 50.2948318,38.7525587 51.5780158,36.3243951 C58.0244138,24.1191925 57.1906542,14.6797008 50.5856662,10.8805172 C46.0144525,8.25209762 38.6108323,7.91028946 29.2256124,12.9195307 C11.8111943,22.2141564 -1.60076436,47.8142624 21.1731681,51.7275399 C26.1075373,52.5740122 31.1550375,52.1076949 36.0253509,50.9918475 C27.7141002,62.1422737 16.8834903,73.0763477 14.4917263,62.4533097 C13.6657154,58.7833694 8.62131465,60.1951034 9.02269707,63.0749082 C10.0827186,70.689845 19.6818025,72.3444427 28.701284,66.436653 C32.9067593,63.6818307 38.8407102,56.6051708 44.2508494,48.5371725 C46.011353,47.9070525 47.7191655,47.2381121 49.3608557,46.5682249"></path>
<path d="M56.5253929,61.0035707 C54.5734809,60.8964644 40.0512355,63.2235913 37.0950861,64.6651983 C35.8100194,65.2921486 35.6130421,69.2626534 36.7328858,68.9862327 C42.3097774,67.6095386 48.9489575,66.2782835 55.3708176,66.072726 C57.2969291,66.0115997 57.2795633,61.0446822 56.5253929,61.0035707"></path>
</g>
</svg>
